<svg xmlns="http://www.w3.org/2000/svg" viewBox="0 0 512 512" role="img" aria-label="Little Chef Academy">
  <defs>
    <linearGradient id="bg" x1="0" x2="1" y1="0" y2="1">
      <stop offset="0" stop-color="#fef3c7"/>
      <stop offset="1" stop-color="#fb923c"/>
    </linearGradient>
  </defs>
  <rect width="512" height="512" rx="112" fill="url(#bg)"/>
  <circle cx="256" cy="246" r="132" fill="#fed7aa"/>
  <path fill="#fff7ed" d="M146 183c-34-9-48-56-16-82 24-20 55-9 68 14 17-42 85-42 102 0 14-24 48-33 72-12 30 27 16 72-17 81v46H146z"/>
  <path fill="#38bdf8" d="M164 305c28 50 156 50 184 0v89c0 27-21 48-48 48h-88c-27 0-48-21-48-48z"/>
  <circle cx="211" cy="248" r="13" fill="#1f2937"/>
  <circle cx="301" cy="248" r="13" fill="#1f2937"/>
  <path d="M219 291c20 24 54 24 74 0" fill="none" stroke="#1f2937" stroke-width="16" stroke-linecap="round"/>
  <text x="256" y="162" text-anchor="middle" font-size="58" font-family="Arial, sans-serif" font-weight="900" fill="#ea580c">ABC</text>
</svg>
